<svg width="429" height="199" viewBox="0 0 429 199" fill="none" xmlns="http://www.w3.org/2000/svg">
<g clip-path="url(#clip0_1374_24847)">
<path fill-rule="evenodd" clip-rule="evenodd" d="M282.179 199H271.692C270.96 199 270.472 199 269.741 198.756H268.034C267.302 198.512 266.326 198.756 265.351 198.268H262.18L261.693 198.025L259.498 197.781H258.766L257.303 197.537H256.571L252.913 197.049L250.718 196.561C245.596 195.83 240.474 194.854 235.596 193.635L230.719 192.172L226.329 190.708C219.012 188.026 212.183 184.855 205.598 180.71L201.94 177.783L199.501 175.344C197.55 173.393 195.599 171.199 194.379 168.76C192.672 166.077 191.453 162.907 190.721 159.737L190.233 156.566V156.078V153.64C190.233 149.738 191.453 146.08 193.891 143.153C195.111 141.69 196.33 140.227 198.281 139.251C201.696 137.3 205.598 136.081 209.5 136.081H211.451C218.768 136.812 225.841 139.007 232.182 142.665C235.353 144.616 238.523 146.567 241.45 148.762L247.547 153.152L251.205 155.591C254.376 157.786 257.546 159.98 260.961 161.931L264.131 163.638C269.985 166.565 276.082 168.272 282.423 169.248H284.862L286.081 169.491H299.495L302.422 169.248H302.666L304.617 169.004H306.324L306.812 168.76L309.982 168.516L314.372 167.784C315.592 167.784 316.811 167.297 317.787 167.053C323.152 165.833 328.274 163.882 333.152 161.444L338.03 158.761L340.469 157.298L345.834 153.152L348.761 150.713L349.98 149.738L352.175 147.299L353.395 146.08L356.321 142.422C361.199 135.349 365.589 127.789 369.735 120.229C372.174 115.352 374.125 110.23 375.588 104.865L378.027 96.8174V96.3297L376.808 95.598L373.881 94.3787L369.003 91.94C355.59 85.3554 345.346 73.6495 340.956 59.261L338.517 49.9939L338.03 45.848L337.542 42.1899V41.7022L337.298 38.5319V36.5809L337.054 35.3615V30.9718V29.9963L337.298 26.5821V24.6311C337.298 24.6311 337.542 24.3873 337.298 24.1434L337.786 20.7292L338.274 17.8027C338.761 14.3885 339.737 11.2181 340.956 8.04779C342.176 6.09681 343.639 4.14583 345.834 2.43873C346.81 1.46324 348.273 0.731618 349.98 0H352.907C354.126 0 355.346 0 356.565 0.731618C360.955 2.6826 364.37 5.85294 366.565 9.99877L368.272 13.6569L369.003 17.315L369.735 22.1924V22.924L369.979 25.3627L370.223 27.3137V28.0453C370.223 28.777 370.223 29.7525 370.711 30.4841V34.1422L371.442 38.288L371.686 40.7267L371.93 42.4338C372.906 47.0674 374.125 51.701 375.345 56.3346L377.052 60.2365C377.783 61.4559 379.003 62.6752 380.466 63.4069H382.173L383.149 61.9436L388.027 54.6274L390.466 50.7255L391.929 47.5551C394.368 42.19 396.319 36.5809 397.538 30.9718C398.758 25.1189 401.197 19.7537 404.123 14.6324L404.611 13.9007C405.587 11.9498 407.05 10.2426 408.757 9.02328C410.952 7.31618 413.635 6.34069 416.562 5.85294H419.245C420.708 5.85294 422.171 6.58456 423.391 7.31618C424.854 8.29167 425.83 9.7549 426.805 11.2181C427.537 12.9252 428.268 14.8762 428.512 16.8272L429 20.2414V28.5331C429 29.5086 429 30.2402 428.512 30.9718V31.4596C428.512 33.8983 427.781 36.8248 427.293 39.0196L426.073 44.3848L424.122 50.9694L421.683 58.7733L419.732 64.8701L416.562 74.625L414.123 81.2096L412.66 85.5993L410.708 90.9645L408.026 97.7929L406.075 102.426L403.148 109.743L400.709 116.327L399.246 119.254V119.741C394.124 130.472 388.271 140.714 381.686 150.713C380.222 152.664 379.003 154.859 377.296 156.566L374.857 159.98L374.369 160.468L371.686 163.395L364.857 170.711L361.443 173.15C360.467 174.369 359.248 175.1 358.028 176.076C352.907 180.222 347.297 183.636 341.444 186.319L333.884 189.733L327.786 192.172L320.47 194.61C319.006 194.61 317.543 195.342 316.08 195.586L309.495 197.049L305.105 197.537L301.69 198.025H300.959L299.007 198.268C298.764 198.268 298.52 198.268 298.276 198.268L295.837 198.512L293.642 198.756H289.74L287.545 199H282.179Z" fill="#5A5A87"/>
<path fill-rule="evenodd" clip-rule="evenodd" d="M263.399 54.3852V58.5311L263.155 60.9698V62.433C263.155 63.4085 263.155 64.6279 262.667 65.6034V69.9931L262.424 71.7002V73.895L262.18 74.3828L261.692 78.0409L260.472 84.3816C259.497 89.0151 258.277 93.4048 256.57 97.7945L253.644 105.111L252.912 106.574C250.961 110.476 248.766 113.89 245.839 117.06C244.62 118.28 243.4 119.499 241.693 120.475C239.254 121.938 236.571 122.913 233.645 123.401L231.694 123.645C229.499 124.133 227.547 123.889 225.596 123.889L221.45 123.401C215.109 122.182 209.256 119.499 204.378 115.353L199.988 110.72C195.598 105.598 191.94 99.7455 189.013 93.4048C185.843 86.3325 183.404 79.0164 181.696 71.4563L180.233 65.8473L179.258 59.7504L178.77 56.824L178.526 53.6536V53.1659C178.526 52.4343 178.526 51.4588 178.038 50.7272V49.7517V47.3129V45.8497V42.1916V40.4845V38.5335V37.3142L178.282 36.8264L178.526 34.1438C179.258 29.2664 180.721 24.6328 182.672 20.2431L184.623 17.5605C187.794 14.1463 191.94 11.7075 196.33 10.2443L199.256 9.75657L201.939 9.5127C204.378 9.5127 206.817 10.2443 208.768 11.9514C209.744 12.4392 210.475 13.1708 211.207 14.1463C212.182 15.3656 213.158 17.0727 213.646 18.7799C214.621 21.7063 215.109 24.6328 215.353 27.5593V33.6561L215.109 36.0948V37.8019L214.865 38.5335L214.621 40.9723V41.9477L214.377 43.411V45.1181L214.134 47.0691V48.5323L213.89 50.971V54.6291L213.646 57.0678V72.4318C213.646 73.6512 214.134 74.8705 214.377 75.846C215.109 78.2848 217.304 80.2357 219.743 80.9674L222.914 81.4551C225.352 81.4551 227.304 80.4796 229.011 79.0164L230.474 76.3338L231.694 71.4563L232.181 68.5299V68.0421V64.8718V59.9943V59.0188V56.5801V55.3607L231.937 54.3852L231.694 52.922V52.4343L230.718 47.0691L230.474 43.6549C230.474 41.46 230.962 39.2651 231.937 37.0703C232.913 35.1193 234.376 33.1683 235.84 31.7051C237.547 30.2419 239.742 29.0225 242.181 28.5348L245.107 28.047H245.595C249.01 28.2909 252.424 29.5102 255.351 31.4612C256.814 32.4367 258.277 33.9 259.497 35.3632C260.716 37.3142 261.692 39.509 262.18 41.7039L262.911 45.8497V47.5568C263.399 49.02 263.399 50.7272 263.399 52.4343V54.3852Z" fill="#5A5A87"/>
<path fill-rule="evenodd" clip-rule="evenodd" d="M264.132 117.548V113.158V110.719V109.744V107.305C264.376 106.573 264.132 105.598 264.619 104.866V103.891V101.452V100.72L264.863 97.3061V95.599L265.107 94.1358L265.351 91.6971V89.99L265.595 88.5267V87.7951L266.083 84.137L266.327 81.6983L266.814 78.7718L267.302 75.6015C268.766 68.5292 271.936 61.7008 276.57 56.0917L278.521 53.653L282.179 50.2387C287.057 45.3613 293.154 42.1909 299.739 40.7277L302.178 40.4838H303.154C303.642 39.9961 304.373 39.9961 305.105 39.9961H312.666C315.104 39.9961 317.543 40.9716 319.982 42.1909L322.421 43.8981L324.616 46.3368C325.592 48.5316 326.323 50.4826 326.811 52.6775C327.055 54.6284 327.055 56.3356 326.811 58.2865C326.811 59.0182 326.811 59.7498 326.323 60.7253C325.836 62.6762 325.104 64.6272 323.884 66.3343L322.177 68.5292L318.275 71.9434L314.129 74.1383C312.422 74.8699 310.471 75.6015 308.519 75.8454L306.081 76.3331L302.666 76.8208H299.008C296.569 77.3086 294.13 77.5525 292.179 78.2841L288.277 80.2351C287.057 80.9667 286.569 82.186 286.082 83.4054V85.3564C286.326 86.8196 287.057 87.7951 288.033 88.7706C288.764 89.2584 289.496 89.7461 290.472 89.7461H295.349L295.837 89.5022H299.496C300.715 89.5022 301.691 89.7461 302.666 90.2338C304.373 90.9655 305.105 92.4287 305.837 94.1358V97.55C305.837 98.5255 305.593 99.7449 304.617 100.476L302.178 102.915L295.837 107.305L293.398 108.768C291.935 109.744 290.959 111.207 290.472 112.914C289.984 114.133 289.74 115.353 290.228 117.06L290.959 119.499L291.447 119.986C292.667 120.718 293.886 121.206 295.349 121.45H297.301C298.764 121.45 299.983 120.962 301.203 120.23L301.934 119.742L305.837 115.597V115.353L309.007 111.938L311.69 109.012L312.422 108.037L316.812 104.378C318.275 103.159 320.226 102.427 322.177 101.94H324.86L328.518 102.184C330.713 102.671 332.664 103.403 334.615 104.622C335.835 105.11 337.054 106.086 338.03 107.061L339.493 109.988C339.981 111.207 340.225 112.426 340.469 113.646V118.279L339.981 120.474C339.493 122.913 338.762 125.351 337.542 127.302C336.567 129.497 335.103 131.448 333.396 133.155L331.445 134.863L330.957 135.35L326.079 139.252L321.689 142.91L318.275 145.349L311.934 150.226C307.788 152.909 303.154 154.86 298.52 156.079C297.301 156.323 296.081 156.811 294.618 156.811C293.154 157.055 292.179 156.811 290.716 156.811C287.545 156.811 284.374 156.323 281.448 154.86C279.009 153.641 276.814 152.421 274.863 150.47L272.912 148.763C271.204 147.056 269.497 144.861 268.278 142.666L267.302 140.472L265.595 134.619L264.619 129.741V129.253V128.522L264.376 125.595V124.376L264.132 121.937V117.548Z" fill="#5A5A87"/>
<path fill-rule="evenodd" clip-rule="evenodd" d="M152.674 147.785H148.04H147.553C140.724 147.298 134.383 144.615 129.017 140.469L128.285 139.738L127.798 139.25L125.359 136.567L123.164 132.909L122.188 130.714L120.237 124.618L119.749 121.691V120.228L119.262 116.814V115.838L119.018 113.887V112.912L118.774 110.473L118.286 106.327V103.644V102.913C117.798 101.937 117.798 101.206 117.798 100.23V98.5231V97.0599C117.798 96.0844 117.798 95.3528 117.31 94.3773V92.6702V90.2315L117.067 89.256V87.7927L116.823 87.0611V85.354L116.579 84.3785L116.335 82.9153V81.9398L116.091 80.2327V79.2572C116.091 78.7695 116.091 78.0378 115.603 77.3062V76.8185V74.3798L115.359 73.1604V70.7217L115.115 69.5023L114.628 65.8442V64.8687V56.0893V54.1383V53.6506L115.115 49.9925L115.359 48.2854L116.335 44.6273C117.067 42.6763 118.042 40.9692 119.505 39.2621L120.237 38.5305L120.725 37.7989L123.164 35.604C125.603 33.653 128.529 32.1898 131.456 31.4582C132.919 30.9704 134.627 30.7266 136.334 30.7266H138.773C143.407 30.7266 148.04 32.1898 151.699 35.1163C153.406 36.3356 154.625 38.0427 155.601 39.7498C157.064 42.1886 158.04 44.6273 158.528 47.066C159.015 49.5047 159.503 51.9435 159.503 54.3822V65.3565C159.015 66.332 159.259 67.0636 159.015 67.7952V72.1849L158.772 73.892V75.3552C158.772 76.0869 158.772 77.0623 158.284 77.794V81.4521L158.04 82.9153L157.796 85.1101V86.5734L157.552 88.5244V89.9876L157.308 91.9386V93.6457C157.308 94.1334 157.308 94.865 156.82 95.5967V99.2548L156.577 100.23V102.669L156.333 103.644V106.083C156.82 106.083 156.82 105.839 157.064 105.595C159.991 104.376 163.162 103.157 166.332 101.937C168.283 101.693 169.99 101.206 171.941 101.45C174.868 101.45 177.551 102.669 179.746 104.376L180.965 105.595C182.673 107.059 183.648 109.01 184.38 111.205C184.868 112.912 185.355 114.619 185.355 116.326V117.545C184.868 124.13 182.185 130.47 178.039 135.592L177.551 136.323L172.185 140.957C170.234 142.42 168.039 143.396 165.844 144.615C163.405 145.834 160.967 147.054 158.04 147.542C156.82 147.542 155.601 148.029 154.382 147.785H152.187H152.674Z" fill="#5A5A87"/>
<path fill-rule="evenodd" clip-rule="evenodd" d="M68.0449 107.304L67.0694 110.719C66.0938 112.426 64.8744 114.133 63.1671 115.596L61.9477 116.328L58.7772 117.791C57.0699 118.522 55.3627 118.766 53.4116 119.254H41.9488C41.2172 118.766 40.4855 118.766 39.51 118.766C38.7783 118.522 38.0466 118.279 37.5588 117.791C37.0711 117.547 36.8272 117.303 36.5833 116.815L36.3394 115.596V112.669V110.719V109.011V107.792L36.5833 103.402C36.5833 102.671 36.5833 101.695 37.315 100.964L38.7783 99.0126C39.7538 98.281 40.7294 97.7933 41.705 97.5494C43.6561 96.8178 45.6072 96.0861 47.8022 95.8423L50.2411 95.5984L54.1433 95.3545H56.0944C58.5333 95.8423 60.9721 96.5739 63.411 97.7933C63.8988 97.7933 64.6305 98.5249 65.1183 99.0126C66.8255 100.476 68.0449 102.671 68.2888 104.866L68.0449 107.304ZM35.3638 67.7969L33.9005 63.4072L33.4127 60.9685V56.5788V54.6278V53.8962C33.4127 52.433 33.9005 50.9697 34.6322 49.7504C35.3638 48.7749 35.8516 47.7994 36.8272 47.3116C37.8027 46.3361 38.7783 45.6045 39.9977 45.3607C41.9488 44.629 44.1438 44.629 46.0949 45.3607C47.3144 45.3607 48.2899 46.0923 49.2655 46.8239C50.4849 48.0433 51.7044 49.7504 51.7044 51.7013V52.9207L50.9727 57.3104L49.7533 59.993C49.2655 61.4562 48.5338 62.9195 47.5583 64.1388L45.8511 66.3337C44.6316 67.5531 43.4122 68.5285 41.705 69.0163C40.7294 69.504 39.7538 69.7479 38.7783 69.504C37.8027 69.504 36.8272 69.2602 36.0955 68.7724L35.3638 67.7969ZM110.969 106.817L110.482 103.402C109.506 98.281 107.799 93.4035 105.116 89.0138C103.653 86.5751 101.945 84.6241 100.238 82.4293L97.5554 79.9906L93.1654 76.3325L85.8488 71.9428H85.361C82.9221 70.4795 79.9955 69.504 77.0688 69.0163L75.8494 68.7724C75.8494 68.7724 75.6055 68.5285 75.8494 68.2847V67.7969C75.8494 66.3337 76.3371 65.1143 76.581 63.895C77.0688 61.4562 77.5566 59.5053 77.5566 57.3104V56.091L77.8005 54.8717L78.0443 52.433V51.7013V43.8974V42.9219V41.4587L77.8005 40.4832L76.8249 35.3619C75.8494 31.9477 74.386 28.7773 71.9471 25.8509C70.4838 24.1437 68.7766 22.6805 67.0694 21.4611C64.6305 19.5102 61.9477 18.2908 59.021 17.3153C54.8749 15.8521 50.7288 14.8766 46.5827 14.145C45.3633 14.145 44.1438 13.6572 43.1683 13.9011H42.6805L40.9733 13.6572H33.1688L32.4372 13.9011L27.5594 14.8766C23.4133 15.8521 19.2672 17.8031 15.8528 20.4857C11.7067 23.656 8.29221 27.558 5.60944 32.1915C4.14611 35.118 2.92666 38.2884 1.95111 41.4587L1.46333 44.629V46.0923C1.46333 47.5555 1.46333 48.7749 0.975554 50.2381V54.1401L0.731666 56.5788V60.9685L0.487777 62.4317V68.7724L0.243889 70.9673V82.4293L0 84.1364V113.157L0.243889 114.864V119.01C0.487777 121.205 0.243889 123.156 0.731666 125.351V128.277L1.46333 130.96C1.95111 133.399 2.68277 136.081 3.90222 138.52L6.3411 141.934L9.26777 143.885C12.9261 146.08 17.0722 147.787 21.2183 149.006C24.6327 149.982 28.2911 150.957 31.9494 151.445L33.9005 151.933L36.0955 152.177L39.7538 152.665H40.2416L41.9488 152.908H42.6805L45.1194 153.152H45.8511C46.5827 153.64 47.3144 153.64 48.2899 153.64H63.411L68.2888 152.665C73.8982 151.689 79.5077 149.738 84.6293 147.056C88.7754 145.105 92.6777 142.666 96.5799 140.227C98.2871 138.764 99.7504 137.788 101.214 136.081L103.165 134.13C106.092 130.716 108.287 126.326 109.262 121.937C109.994 119.498 110.482 117.059 110.482 114.62V113.889V111.938V107.792V106.573" fill="#5A5A87"/>
</g>
<defs>
<clipPath id="clip0_1374_24847">
<rect width="429" height="199" fill="white"/>
</clipPath>
</defs>
</svg>
